HIERARCHY
ROOT Hips
{
	OFFSET 0.00000 0.00000 0.00000
	CHANNELS 6 Xposition Yposition Zposition Zrotation Yrotation Xrotation 
	JOINT LHipJoint
	{
		OFFSET 0 0 0
		CHANNELS 3 Zrotation Yrotation Xrotation
		JOINT LeftUpLeg
		{
			OFFSET 1.57314 -1.85774 0.63783
			CHANNELS 3 Zrotation Yrotation Xrotation
			JOINT LeftLeg
			{
				OFFSET 2.57982 -7.08799 0.00000
				CHANNELS 3 Zrotation Yrotation Xrotation
				JOINT LeftFoot
				{
					OFFSET 2.63993 -7.25315 0.00000
					CHANNELS 3 Zrotation Yrotation Xrotation
					JOINT LeftToeBase
					{
						OFFSET 0.16864 -0.46332 2.12791
						CHANNELS 3 Zrotation Yrotation Xrotation
						End Site
						{
							OFFSET 0.00000 -0.00000 1.09718
						}
					}
				}
			}
		}
	}
	JOINT RHipJoint
	{
		OFFSET 0 0 0
		CHANNELS 3 Zrotation Yrotation Xrotation
		JOINT RightUpLeg
		{
			OFFSET -1.56006 -1.85774 0.63784
			CHANNELS 3 Zrotation Yrotation Xrotation
			JOINT RightLeg
			{
				OFFSET -2.54246 -6.98536 0.00000
				CHANNELS 3 Zrotation Yrotation Xrotation
				JOINT RightFoot
				{
					OFFSET -2.65791 -7.30256 0.00000
					CHANNELS 3 Zrotation Yrotation Xrotation
					JOINT RightToeBase
					{
						OFFSET -0.18435 -0.50650 2.16316
						CHANNELS 3 Zrotation Yrotation Xrotation
						End Site
						{
							OFFSET -0.00000 -0.00000 1.11780
						}
					}
				}
			}
		}
	}
	JOINT LowerBack
	{
		OFFSET 0 0 0
		CHANNELS 3 Zrotation Yrotation Xrotation
		JOINT Spine
		{
			OFFSET -0.00136 1.92812 -0.29638
			CHANNELS 3 Zrotation Yrotation Xrotation
			JOINT Spine1
			{
				OFFSET -0.00528 1.96223 -0.02928
				CHANNELS 3 Zrotation Yrotation Xrotation
				JOINT Neck
				{
					OFFSET 0 0 0
					CHANNELS 3 Zrotation Yrotation Xrotation
					JOINT Neck1
					{
						OFFSET -0.01015 1.75586 0.07797
						CHANNELS 3 Zrotation Yrotation Xrotation
						JOINT Head
						{
							OFFSET 0.05540 1.72452 0.04558
							CHANNELS 3 Zrotation Yrotation Xrotation
							End Site
							{
								OFFSET 0.02170 1.79958 0.00864
							}
						}
					}
				}
				JOINT LeftShoulder
				{
					OFFSET 0 0 0
					CHANNELS 3 Zrotation Yrotation Xrotation
					JOINT LeftArm
					{
						OFFSET 3.16292 1.29277 -0.65728
						CHANNELS 3 Zrotation Yrotation Xrotation
						JOINT LeftForeArm
						{
							OFFSET 5.52302 -0.00000 -0.00000
							CHANNELS 3 Zrotation Yrotation Xrotation
							JOINT LeftHand
							{
								OFFSET 3.58675 -0.00000 -0.00000
								CHANNELS 3 Zrotation Yrotation Xrotation
								JOINT LeftFingerBase
								{
									OFFSET 0 0 0
									CHANNELS 3 Zrotation Yrotation Xrotation
									JOINT LeftHandIndex1
									{
										OFFSET 0.53641 -0.00000 -0.00000
										CHANNELS 3 Zrotation Yrotation Xrotation
										End Site
										{
											OFFSET 0.43247 -0.00000 -0.00000
										}
									}
								}
								JOINT LThumb
								{
									OFFSET 0 0 0
									CHANNELS 3 Zrotation Yrotation Xrotation
									End Site
									{
										OFFSET 0.43907 -0.00000 0.43907
									}
								}
							}
						}
					}
				}
				JOINT RightShoulder
				{
					OFFSET 0 0 0
					CHANNELS 3 Zrotation Yrotation Xrotation
					JOINT RightArm
					{
						OFFSET -3.08296 1.43376 -0.52927
						CHANNELS 3 Zrotation Yrotation Xrotation
						JOINT RightForeArm
						{
							OFFSET -5.84780 -0.00000 0.00000
							CHANNELS 3 Zrotation Yrotation Xrotation
							JOINT RightHand
							{
								OFFSET -3.62717 -0.00000 -0.00000
								CHANNELS 3 Zrotation Yrotation Xrotation
								JOINT RightFingerBase
								{
									OFFSET 0 0 0
									CHANNELS 3 Zrotation Yrotation Xrotation
									JOINT RightHandIndex1
									{
										OFFSET -0.65052 -0.00000 -0.00000
										CHANNELS 3 Zrotation Yrotation Xrotation
										End Site
										{
											OFFSET -0.52446 -0.00000 -0.00000
										}
									}
								}
								JOINT RThumb
								{
									OFFSET 0 0 0
									CHANNELS 3 Zrotation Yrotation Xrotation
									End Site
									{
										OFFSET -0.53247 -0.00000 0.53247
									}
								}
							}
						}
					}
				}
			}
		}
	}
}
MOTION
Frames: 14
Frame Time: .0083333
-0.6428 18.4764 8.4258 -8.4075 -2.5072 7.2127 0.0000 0.0000 0.0000 -5.8270 -14.5243 -44.1982 8.4443 16.4365 54.1478 -0.0128 -3.0902 3.6286 0.5882 -4.9104 -13.6531 0.0000 0.0000 0.0000 30.1209 0.3760 32.5794 0.0000 0.0000 -0.0000 -4.1183 -18.0941 37.2062 -1.1508 -6.8113 19.1574 9.4372 1.6496 13.0643 0.6645 3.6405 0.3812 -5.2651 1.5001 -6.3964 -0.0907 0.2133 -6.1902 -2.3145 0.2182 -6.0516 -0.6896 0.1253 -0.8327 0.0000 -0.0000 0.0000 -83.1331 30.7783 39.8469 127.7536 -53.8623 -92.0216 -0.0000 0.0000 -27.2657 36.9898 6.1192 4.5909 -7.1250 0.0000 -0.0000 8.7500 37.4944 -1.6314 0.0000 -0.0000 0.0000 71.7423 9.0184 45.6438 -134.0111 51.2439 -96.9926 0.0000 -0.0000 -6.0930 -43.7714 28.6955 -24.7020 7.1250 -0.0000 -0.0000 -7.4031 6.9077 -8.3055
-0.6299 18.5171 8.9708 -8.5912 -2.1857 7.4850 0.0000 0.0000 0.0000 -5.4791 -14.9466 -43.3581 6.9591 15.2973 48.7193 0.0224 -2.7718 5.0904 0.2849 -3.4326 -9.4856 0.0000 0.0000 0.0000 30.6982 0.5485 32.4198 -0.0176 -0.8567 2.3546 -3.9787 -17.0390 36.4573 -1.4213 -7.5391 21.3228 9.6193 1.6217 12.9451 0.6687 3.6283 0.2281 -5.3587 1.4789 -6.4868 -0.0599 0.1431 -6.9519 -2.3990 0.1365 -5.5576 -0.7190 0.0750 -0.5590 -0.0000 -0.0000 0.0000 -83.4378 30.4049 39.2790 128.5516 -53.5632 -92.6648 -0.0000 0.0000 -27.5472 37.2477 7.6780 5.8006 -7.1250 0.0000 -0.0000 9.0909 39.4350 -1.2588 -0.0000 -0.0000 0.0000 71.6486 8.4344 46.6591 -134.1652 51.1709 -97.1128 0.0000 -0.0000 -5.6681 -44.3512 30.0002 -26.0496 7.1250 -0.0000 -0.0000 -7.3639 8.6528 -8.4530
-0.6261 18.5480 9.5021 -8.7864 -1.9275 7.3908 0.0000 0.0000 0.0000 -5.2783 -15.0389 -42.0557 5.6445 14.0748 43.5378 0.0365 -2.3378 5.2279 0.6412 -5.1229 -14.2594 0.0000 0.0000 0.0000 31.8998 1.2829 30.2153 -0.2774 -3.3877 9.3602 -3.2476 -15.4697 32.8013 -1.5451 -7.8462 22.2480 9.5513 1.5883 13.2548 0.7932 3.6243 0.1444 -5.2065 1.4626 -6.7650 0.0252 0.1310 -7.1648 -2.6097 0.1126 -5.4941 -0.7986 0.0598 -0.5053 0.0000 -0.0000 0.0000 -83.9145 29.9594 38.7963 129.0005 -53.3907 -93.0256 -0.0000 0.0000 -27.2781 37.0816 7.5020 5.6355 -7.1250 0.0000 -0.0000 8.9321 39.2033 -1.2878 0.0000 -0.0000 0.0000 71.4387 7.6603 47.7442 -134.1500 51.1782 -97.1009 0.0000 -0.0000 -5.4861 -44.7488 30.6634 -26.8185 7.1250 -0.0000 -0.0000 -7.3915 9.5826 -8.5846
-0.6190 18.5665 10.0364 -9.2759 -1.8761 7.1592 0.0000 0.0000 0.0000 -4.8822 -14.8631 -40.4972 4.5445 12.8517 38.8158 0.0416 -1.8348 4.9854 0.9155 -6.0965 -17.0646 0.0000 0.0000 0.0000 33.1004 1.9026 29.1953 -0.6537 -5.1717 14.3990 -2.8130 -14.7210 30.4830 -1.4937 -7.7205 21.8684 9.7140 1.5632 13.6256 1.0186 3.6749 0.1560 -5.0843 1.4742 -6.9597 -0.1106 0.1902 -7.5066 -2.5469 0.2090 -5.3349 -0.7544 0.1067 -0.4006 -0.0000 -0.0000 0.0000 -84.3400 29.4740 38.4381 129.5545 -53.1736 -93.4696 -0.0000 0.0000 -27.1719 37.0536 6.6336 4.9847 -7.1250 0.0000 -0.0000 8.8440 38.1327 -1.5096 -0.0000 -0.0000 0.0000 71.1084 6.9990 48.8824 -133.7283 51.3765 -96.7719 0.0000 -0.0000 -5.2471 -44.6433 30.3016 -26.4874 7.1250 -0.0000 -0.0000 -7.4372 9.1241 -8.5895
-0.6112 18.5702 10.5592 -9.8520 -1.9887 6.9687 0.0000 0.0000 0.0000 -4.3490 -14.6347 -38.9828 3.6758 11.7161 34.7347 0.0459 -1.3672 4.7940 1.0025 -6.3715 -17.8662 0.0000 0.0000 0.0000 34.2593 2.6739 28.3874 -1.1311 -6.7549 18.9913 -2.5037 -14.7979 28.8168 -1.5928 -7.9608 22.5952 9.9949 1.5771 13.9945 1.1702 3.7907 0.1892 -5.1178 1.5152 -7.1074 -0.0921 0.2162 -7.5100 -2.4686 0.2376 -5.6691 -0.7333 0.1240 -0.5024 -0.0000 0.0000 0.0000 -84.5250 28.8491 38.2254 130.1427 -52.9378 -93.9398 -0.0000 0.0000 -26.9910 37.2195 5.9443 4.4978 -7.1250 0.0000 -0.0000 8.9330 37.2952 -1.7103 -0.0000 0.0000 0.0000 71.0343 6.3078 49.8599 -133.0694 51.6800 -96.2561 0.0000 -0.0000 -4.9637 -43.9428 29.4782 -25.3731 7.1250 -0.0000 -0.0000 -7.2858 7.8804 -8.2788
-0.6065 18.5618 11.0824 -10.3427 -2.1762 6.7739 0.0000 0.0000 0.0000 -3.9172 -14.3580 -37.5708 3.0390 10.7579 31.4676 0.0409 -0.6478 4.1139 1.1699 -6.8657 -19.3182 0.0000 0.0000 0.0000 34.7626 2.5080 27.2149 -1.7197 -8.2561 23.4948 -2.4263 -14.4763 28.3428 -1.5882 -7.9498 22.5618 10.1686 1.5885 14.3004 1.2484 3.8751 0.2202 -5.1621 1.5447 -7.2278 0.1076 0.2367 -7.1182 -2.4527 0.2340 -6.4144 -0.7645 0.1276 -0.7945 -0.0000 -0.0000 0.0000 -84.6622 28.0486 37.8605 130.4652 -52.8061 -94.1969 -0.0000 0.0000 -26.6800 37.4289 6.1463 4.6846 -7.1250 0.0000 -0.0000 9.1292 37.5601 -1.6887 -0.0000 -0.0000 0.0000 71.2435 5.4221 50.8386 -132.2592 52.0427 -95.6188 0.0000 -0.0000 -5.0000 -42.8528 29.2210 -24.3656 7.1250 -0.0000 -0.0000 -6.7588 7.1328 -7.5957
-0.5930 18.5450 11.6360 -10.6406 -2.6527 6.6647 0.0000 0.0000 0.0000 -3.7269 -14.0264 -36.2568 2.6084 10.0325 29.0819 0.0268 0.4622 2.9599 1.3615 -7.3855 -20.8626 0.0000 0.0000 0.0000 34.9164 2.5637 26.1567 -2.4262 -9.7024 28.0184 -2.4582 -14.9674 28.5882 -1.5219 -7.7899 22.0778 10.2153 1.7290 13.9591 1.2409 4.0046 0.4753 -5.1907 1.6434 -6.7332 0.3750 0.2471 -7.3053 -2.4879 0.2233 -6.7758 -0.8214 0.1183 -0.8763 0.0000 -0.0000 0.0000 -84.7875 26.7298 37.5545 130.4173 -52.8258 -94.1587 -0.0000 0.0000 -26.4878 37.6881 6.4881 4.9891 -7.1250 0.0000 -0.0000 9.3812 38.0032 -1.6333 0.0000 -0.0000 0.0000 71.5696 4.6697 51.4446 -131.1638 52.5152 -94.7523 0.0000 -0.0000 -5.5161 -41.8110 29.9256 -24.0473 7.1250 -0.0000 -0.0000 -6.0017 7.5144 -6.7700
-0.5866 18.5052 12.1547 -10.8562 -2.3269 6.2814 0.0000 0.0000 0.0000 -3.8334 -13.9584 -34.9952 2.3054 9.4752 27.2936 0.0148 1.4067 2.2275 1.5070 -7.7532 -21.9669 0.0000 0.0000 0.0000 35.2410 2.0551 24.7756 -3.3023 -11.1690 32.8520 -2.4160 -16.2228 28.5549 -1.4858 -7.7010 21.8096 10.3462 1.5838 14.0491 1.2511 3.8148 0.8616 -5.2128 1.5800 -6.3865 0.4921 0.2702 -7.8507 -2.3230 0.2502 -6.9912 -0.7890 0.1269 -0.8548 -0.0000 -0.0000 0.0000 -84.8067 24.8415 37.4436 130.1578 -52.9316 -93.9518 -0.0000 0.0000 -26.6437 37.6713 6.3863 4.9086 -7.1250 0.0000 -0.0000 9.3580 37.8756 -1.6588 -0.0000 -0.0000 0.0000 71.8239 4.0968 51.6940 -129.7212 53.1073 -93.6030 0.0000 -0.0000 -5.9568 -41.2975 29.8322 -23.6049 7.1250 -0.0000 -0.0000 -5.7446 7.2068 -6.4505
-0.5785 18.4607 12.6927 -10.8183 -2.3130 5.8372 0.0000 0.0000 0.0000 -4.4238 -13.4712 -33.6878 2.1210 9.1136 26.1514 -0.0031 2.6441 1.6493 1.4580 -7.6319 -21.6014 0.0000 0.0000 0.0000 35.2412 1.8783 23.4335 -4.3449 -12.6058 37.9101 -2.3130 -17.9055 28.3294 -1.2168 -6.9972 19.7071 10.2024 1.5703 13.9520 1.1676 3.7274 1.2351 -5.1902 1.5785 -5.9443 0.3736 0.3402 -7.9303 -1.8544 0.3642 -7.4096 -0.6238 0.1873 -0.9708 -0.0000 -0.0000 0.0000 -84.6622 23.1089 37.5675 129.9248 -53.0258 -93.7658 -0.0000 0.0000 -26.8759 37.3251 6.1927 4.7021 -7.1250 0.0000 -0.0000 9.0438 37.6097 -1.6615 -0.0000 -0.0000 0.0000 72.1219 3.2541 51.9492 -128.2018 53.6955 -92.3832 0.0000 -0.0000 -5.9794 -39.7394 26.3290 -20.2408 7.1250 -0.0000 -0.0000 -5.7271 2.6378 -6.0142
-0.5982 18.3947 13.1554 -10.3410 -0.6768 5.7420 0.0000 0.0000 0.0000 -5.5713 -13.5853 -33.3988 2.0085 8.8837 25.4323 0.0055 3.0490 2.4239 1.3817 -7.4378 -21.0189 0.0000 0.0000 0.0000 35.2138 0.9181 20.5931 -5.6083 -14.0377 43.3887 -2.1346 -20.4118 28.0198 -1.1562 -6.8268 19.2032 9.6204 1.0186 14.3663 1.0344 2.9642 1.0461 -4.9014 1.1831 -6.5233 0.2707 0.4344 -7.1685 -1.3084 0.5127 -8.0739 -0.4421 0.2667 -1.3011 0.0000 0.0000 0.0000 -84.3069 21.7206 37.8099 129.6712 -53.1272 -93.5631 -0.0000 0.0000 -27.3130 36.8222 5.5446 4.1376 -7.1250 0.0000 -0.0000 8.5626 36.7755 -1.7479 0.0000 0.0000 0.0000 72.5813 1.8918 52.2378 -126.3890 54.3520 -90.9161 0.0000 -0.0000 -6.1469 -39.3767 24.8166 -19.0074 7.1250 -0.0000 -0.0000 -5.8572 0.7661 -5.9661
-0.6002 18.3272 13.6971 -10.0112 -0.9720 5.9894 0.0000 0.0000 0.0000 -6.4892 -12.5628 -32.8604 1.9539 8.7694 25.0765 0.0019 3.5508 2.5734 1.3688 -7.4044 -20.9191 0.0000 0.0000 0.0000 34.8728 1.5543 18.2891 -7.0271 -15.3546 48.9766 -2.0710 -22.2625 28.2685 -1.3936 -7.4686 21.1113 8.9561 1.1504 13.8462 0.8263 2.9717 0.8847 -4.7342 1.2040 -6.4268 0.3360 0.4530 -6.2744 -0.9271 0.5498 -8.6051 -0.3405 0.2829 -1.6176 0.0000 0.0000 0.0000 -83.8579 20.4251 38.0834 129.5141 -53.1896 -93.4373 -0.0000 0.0000 -28.0233 36.7207 5.7195 4.2515 -7.1250 0.0000 -0.0000 8.4895 36.9838 -1.6891 0.0000 0.0000 0.0000 73.0564 0.3929 52.5133 -124.1760 55.0904 -89.1094 0.0000 -0.0000 -6.6632 -39.9433 24.7103 -19.2934 7.1250 -0.0000 -0.0000 -6.2108 0.8318 -6.3375
-0.6066 18.2414 14.2226 -9.5708 -0.9341 5.7457 0.0000 0.0000 0.0000 -7.6904 -11.5869 -31.9133 1.9527 8.7669 25.0689 0.0300 2.9205 3.4485 1.1942 -6.9343 -19.5208 0.0000 0.0000 0.0000 34.3737 1.5391 16.1574 -8.5799 -16.5297 54.6257 -2.0660 -23.6732 28.7342 -1.3410 -7.3320 20.7029 8.1492 1.1295 13.9769 0.6964 2.8222 0.8946 -4.3993 1.1476 -6.5409 0.3617 0.4331 -6.2106 -0.6534 0.5374 -8.4012 -0.2594 0.2718 -1.5636 0.0000 -0.0000 0.0000 -83.5368 18.6418 38.3884 129.0918 -53.3553 -93.0989 -0.0000 0.0000 -28.8445 36.5101 6.0359 4.4508 -7.1250 0.0000 -0.0000 8.3325 37.3577 -1.5804 0.0000 -0.0000 0.0000 73.4396 -0.8367 52.4934 -121.7507 55.8251 -87.1115 0.0000 -0.0000 -6.9519 -40.2739 23.9140 -18.9554 7.1250 -0.0000 -0.0000 -6.5800 0.0100 -6.6250
-0.6041 18.1379 14.7451 -8.5532 -0.4386 5.0426 0.0000 0.0000 0.0000 -9.8122 -10.5970 -30.7594 2.0542 8.9780 25.7265 0.0638 0.3150 4.6670 0.8859 -5.9998 -16.7838 0.0000 0.0000 0.0000 32.9864 0.6171 14.2300 -10.1879 -17.5141 60.1144 -2.1438 -24.1690 29.3016 -1.7743 -8.3792 23.8720 6.9968 0.9394 14.4217 0.4599 2.3984 1.1393 -3.9379 0.9743 -6.6160 0.1981 0.4023 -6.5216 -0.3309 0.5208 -8.0192 -0.1310 0.2634 -1.3916 -0.0000 0.0000 0.0000 -83.2043 16.5344 38.8258 128.7172 -53.5000 -92.7980 -0.0000 0.0000 -29.7290 36.8503 6.1127 4.5629 -7.1250 0.0000 -0.0000 8.6298 37.4762 -1.6125 -0.0000 0.0000 0.0000 73.7578 -1.9475 52.2299 -119.3764 56.4738 -85.1395 0.0000 -0.0000 -7.3394 -40.4594 23.5635 -18.8264 7.1250 -0.0000 -0.0000 -6.7659 -0.3411 -6.7730
-0.6045 18.0226 15.2609 -7.5500 0.0475 4.2038 0.0000 0.0000 0.0000 -11.9396 -9.3868 -29.6407 2.2454 9.3596 26.9267 -0.0004 -3.2819 4.6639 0.7427 -5.5053 -15.3557 0.0000 0.0000 0.0000 31.4893 -0.3949 12.4340 -11.8438 -18.3238 65.4929 -2.0856 -24.1546 29.0077 -1.9388 -8.7373 24.9770 5.8469 0.7561 14.9636 0.1950 1.9788 1.4129 -3.5042 0.8019 -6.6995 -0.0180 0.3581 -6.5712 0.0921 0.4931 -7.7517 0.0348 0.2507 -1.3006 0.0000 -0.0000 0.0000 -82.7471 14.6326 39.3528 128.8978 -53.4305 -92.9431 -0.0000 0.0000 -30.5925 37.2102 5.9256 4.4823 -7.1250 0.0000 -0.0000 8.9236 37.2715 -1.7137 0.0000 -0.0000 0.0000 74.2073 -3.2473 51.8758 -116.5969 57.1506 -82.8133 0.0000 -0.0000 -8.2336 -41.1931 25.4354 -20.6013 7.1250 -0.0000 -0.0000 -6.7685 2.1140 -7.0623
